<?xml version="1.0" encoding="UTF-8" standalone="no"?>
<!-- Created with Inkscape (http://www.inkscape.org/) -->

<svg
   xmlns:dc="http://purl.org/dc/elements/1.1/"
   xmlns:cc="http://creativecommons.org/ns#"
   xmlns:rdf="http://www.w3.org/1999/02/22-rdf-syntax-ns#"
   xmlns:svg="http://www.w3.org/2000/svg"
   xmlns="http://www.w3.org/2000/svg"
   xmlns:xlink="http://www.w3.org/1999/xlink"
   xmlns:sodipodi="http://sodipodi.sourceforge.net/DTD/sodipodi-0.dtd"
   xmlns:inkscape="http://www.inkscape.org/namespaces/inkscape"
   width="600"
   height="400"
   id="svg4486"
   version="1.1"
   inkscape:version="0.92.4 (5da689c313, 2019-01-14)"
   sodipodi:docname="glitchbg600by400.svg">
  <defs
     id="defs4488">
    <linearGradient
       inkscape:collect="always"
       id="linearGradient3814">
      <stop
         style="stop-color:#d4e4e5;stop-opacity:1"
         offset="0"
         id="stop3816" />
      <stop
         style="stop-color:#f2dbaa;stop-opacity:1"
         offset="1"
         id="stop3818" />
    </linearGradient>
    <linearGradient
       inkscape:collect="always"
       xlink:href="#linearGradient186-6"
       id="linearGradient4439"
       gradientUnits="userSpaceOnUse"
       gradientTransform="matrix(0.20299666,9.9978355,-9.9978355,0.20299666,578.86325,78.988023)"
       x1="4.6083999"
       y1="-26.898001"
       x2="34.188999"
       y2="-26.898001" />
    <linearGradient
       id="linearGradient186-6"
       y2="-26.898001"
       gradientUnits="userSpaceOnUse"
       x2="34.188999"
       gradientTransform="matrix(0.01624,-0.79984,-0.79984,-0.01624,-0.44019,24.24)"
       y1="-26.898001"
       x1="4.6083999">
      <stop
         id="stop188-7"
         style="stop-color:#8865a3"
         offset="0" />
      <stop
         id="stop190-5"
         style="stop-color:#edd6f6"
         offset="1" />
    </linearGradient>
    <linearGradient
       inkscape:collect="always"
       xlink:href="#linearGradient186-6-2"
       id="linearGradient4439-6"
       gradientUnits="userSpaceOnUse"
       gradientTransform="matrix(0.20299666,9.9978355,-9.9978355,0.20299666,578.86325,78.988023)"
       x1="4.6083999"
       y1="-26.898001"
       x2="34.188999"
       y2="-26.898001" />
    <linearGradient
       id="linearGradient186-6-2"
       y2="-26.898001"
       gradientUnits="userSpaceOnUse"
       x2="34.188999"
       gradientTransform="matrix(0.01624,-0.79984,-0.79984,-0.01624,-0.44019,24.24)"
       y1="-26.898001"
       x1="4.6083999">
      <stop
         id="stop188-7-6"
         style="stop-color:#8865a3"
         offset="0" />
      <stop
         id="stop190-5-1"
         style="stop-color:#edd6f6"
         offset="1" />
    </linearGradient>
    <linearGradient
       inkscape:collect="always"
       xlink:href="#linearGradient186-6-6"
       id="linearGradient4439-3"
       gradientUnits="userSpaceOnUse"
       gradientTransform="matrix(0.20299666,9.9978355,-9.9978355,0.20299666,578.86325,78.988023)"
       x1="4.6083999"
       y1="-26.898001"
       x2="34.188999"
       y2="-26.898001" />
    <linearGradient
       id="linearGradient186-6-6"
       y2="-26.898001"
       gradientUnits="userSpaceOnUse"
       x2="34.188999"
       gradientTransform="matrix(0.01624,-0.79984,-0.79984,-0.01624,-0.44019,24.24)"
       y1="-26.898001"
       x1="4.6083999">
      <stop
         id="stop188-7-1"
         style="stop-color:#8865a3"
         offset="0" />
      <stop
         id="stop190-5-2"
         style="stop-color:#edd6f6"
         offset="1" />
    </linearGradient>
    <linearGradient
       inkscape:collect="always"
       xlink:href="#linearGradient186-6"
       id="linearGradient4665"
       gradientUnits="userSpaceOnUse"
       gradientTransform="matrix(0.20299666,9.9978355,-9.9978355,0.20299666,578.86325,78.988023)"
       x1="4.6083999"
       y1="-26.898001"
       x2="34.188999"
       y2="-26.898001" />
    <linearGradient
       inkscape:collect="always"
       xlink:href="#linearGradient186-6"
       id="linearGradient4680"
       gradientUnits="userSpaceOnUse"
       gradientTransform="matrix(-0.43285019,9.9905236,-9.9905236,-0.43285019,601.83598,373.58366)"
       x1="4.6083999"
       y1="-26.898001"
       x2="34.188999"
       y2="-26.898001" />
    <linearGradient
       id="linearGradient186-6-3"
       y2="-26.898001"
       gradientUnits="userSpaceOnUse"
       x2="34.188999"
       gradientTransform="matrix(0.01624,-0.79984,-0.79984,-0.01624,-0.44019,24.24)"
       y1="-26.898001"
       x1="4.6083999">
      <stop
         id="stop188-7-2"
         style="stop-color:#8865a3"
         offset="0" />
      <stop
         id="stop190-5-0"
         style="stop-color:#edd6f6"
         offset="1" />
    </linearGradient>
    <linearGradient
       y2="-26.898001"
       x2="34.188999"
       y1="-26.898001"
       x1="4.6083999"
       gradientTransform="matrix(-0.43285019,9.9905236,-9.9905236,-0.43285019,-31.6549,-36.18753)"
       gradientUnits="userSpaceOnUse"
       id="linearGradient4697"
       xlink:href="#linearGradient186-6-3"
       inkscape:collect="always" />
    <linearGradient
       inkscape:collect="always"
       xlink:href="#linearGradient3814"
       id="linearGradient3820"
       x1="580.78687"
       y1="404.41138"
       x2="582.42627"
       y2="639.65729"
       gradientUnits="userSpaceOnUse"
       gradientTransform="translate(-540)" />
  </defs>
  <sodipodi:namedview
     id="base"
     pagecolor="#ffffff"
     bordercolor="#666666"
     borderopacity="1.0"
     inkscape:pageopacity="0.0"
     inkscape:pageshadow="2"
     inkscape:zoom="1.22"
     inkscape:cx="176.53955"
     inkscape:cy="170.17414"
     inkscape:document-units="px"
     inkscape:current-layer="layer1"
     showgrid="false"
     fit-margin-top="0"
     fit-margin-left="0"
     fit-margin-right="0"
     fit-margin-bottom="0"
     inkscape:window-width="1920"
     inkscape:window-height="1015"
     inkscape:window-x="0"
     inkscape:window-y="0"
     inkscape:window-maximized="1" />
  <metadata
     id="metadata4491">
    <rdf:RDF>
      <cc:Work
         rdf:about="">
        <dc:format>image/svg+xml</dc:format>
        <dc:type
           rdf:resource="http://purl.org/dc/dcmitype/StillImage" />
        <dc:title></dc:title>
      </cc:Work>
    </rdf:RDF>
  </metadata>
  <g
     inkscape:label="Layer 1"
     inkscape:groupmode="layer"
     id="layer1"
     transform="translate(-155.70494,-307.70059)">
    <rect
       style="opacity:1;vector-effect:none;fill:#c2e5f1;fill-opacity:1;stroke:none;stroke-width:0.40672463;stroke-linecap:butt;stroke-linejoin:miter;stroke-miterlimit:4;stroke-dasharray:none;stroke-dashoffset:0;stroke-opacity:1;marker:none"
       id="rect852"
       width="600"
       height="400"
       x="155.70494"
       y="307.70059"
       inkscape:export-xdpi="96.065689"
       inkscape:export-ydpi="96.065689" />
    <path
       style="opacity:1;vector-effect:none;fill:#f9f9f9;fill-opacity:1;stroke:none;stroke-width:0.36468911;stroke-linecap:butt;stroke-linejoin:miter;stroke-miterlimit:4;stroke-dasharray:none;stroke-dashoffset:0;stroke-opacity:1;marker:none"
       d="m 260.84322,503.05801 c -1.30132,-0.0364 -2.68082,0.1855 -4.19046,0.62315 -3.81134,1.21962 -5.63902,3.49815 -5.43085,6.82503 l -4.62233,-0.62117 c -0.5435,1.81666 -0.58773,4.09255 -0.12423,6.82898 -0.18979,-0.43991 -0.77199,-0.84383 -1.79845,-1.33701 -2.93318,-2.67591 -6.12969,-2.88807 -9.58779,-0.6192 -1.31847,1.16058 -1.86305,2.88338 -1.58153,5.1804 0.25055,2.29504 -0.0249,3.83216 -0.93077,4.62233 -4.81547,-2.18908 -8.02804,-2.17763 -9.62131,0 -0.47839,0.79404 -0.66695,2.01607 -0.5561,3.6955 0.32607,1.47534 0.15913,2.60559 -0.49891,3.41153 -6.66892,-3.13162 -10.18713,-4.68788 -10.61322,-4.71501 -5.07842,-1.35797 -6.99565,0.49033 -5.64382,5.52352 -3.77761,-2.72967 -7.77982,-1.6041 -12.0429,3.28927 -1.98734,-1.16109 -3.4672,-1.99869 -4.49612,-2.45315 -1.6075,-0.53017 -2.61377,0.12421 -2.94812,1.95424 0.49069,2.31034 0.0224,4.37209 -1.33503,6.1447 l -5.39929,2.17312 -6.11315,-6.63966 c -3.09005,-3.51042 -5.37534,-3.65709 -6.82504,-0.43581 -2.80194,-4.73659 -5.26846,-6.64004 -7.38705,-5.74045 -1.09547,0.95699 -1.72684,2.47726 -1.85958,4.5612 -0.49242,-0.8814 -1.00427,-1.56633 -1.53223,-2.09425 V 707.70061 H 755.70463 V 511.58684 c -1.15811,0.35433 -2.21522,0.94165 -3.17095,1.77281 -2.34225,2.42825 -3.1808,5.81093 -2.48469,10.14586 -1.87478,0.11942 -3.32276,-0.23436 -4.40541,-0.98994 -3.72633,0.23734 -5.01104,2.6171 -3.90848,7.10506 -3.13512,-0.61709 -5.23914,-0.93724 -6.30049,-0.86965 -1.02261,0.0651 -3.26586,0.34373 -6.7639,0.74541 0.0471,4.15847 1.42284,7.91105 4.12736,11.29355 l -6.88814,-0.49496 c -1.81914,0.50477 -3.11831,1.20153 -3.91044,2.07649 -0.95141,1.30515 -1.91533,2.20993 -2.91854,2.70162 0.35363,-3.97397 -0.64758,-5.47857 -3.07235,-4.46851 -1.21484,0.46628 -3.32427,1.97014 -6.265,4.40541 l -0.34115,-0.27805 1.33307,-3.81776 c -0.20729,-6.18621 -6.66615,-0.87605 -12.25589,-0.34115 -4.69452,3.51518 -1.37035,11.70484 5.12125,21.50251 2.26713,3.42173 -21.21691,-7.62157 -13.99517,14.30477 -1.12866,1.2768 -1.75645,2.58673 -1.92466,3.91044 l -4.09384,-0.86767 c -1.90937,0.91294 -2.95295,2.3137 -3.07234,4.18849 l -7.6651,-1.73929 c -0.87351,0.76889 -1.19158,2.71493 -0.96234,5.83313 0.21009,2.93028 0.80217,4.95604 1.7669,6.05202 -3.06948,-0.41329 -5.31235,0.25303 -6.67122,2.04889 -1.7101,-5.51492 -4.65478,-8.29263 -8.81279,-8.34741 -2.28315,0.0646 -4.07351,0.86697 -5.4269,2.45315 l -1.17924,-1.02741 c -4.72129,-4.03433 -10.20052,-5.91739 -16.44635,-5.67734 -0.8934,4.50127 0.49717,8.32652 4.24963,11.45131 -3.96263,0.17544 -7.32411,-0.24586 -10.17741,-1.24432 -2.90515,-0.185 -4.70717,0.58728 -5.43085,2.42357 -0.74224,-1.29183 -1.85998,-2.18278 -3.28927,-2.70162 -1.8053,-0.72168 -3.89936,-0.67085 -6.20386,0.21692 -2.36071,0.91531 -4.07749,2.15665 -5.21392,3.75663 l -0.34115,-0.0315 c 0.55929,-2.06455 -0.0348,-4.0568 -1.76887,-6.0185 -3.23072,-1.6681 -7.38304,-3.07181 -12.4728,-4.2516 -5.58973,-0.53488 -8.44972,2.28346 -8.65701,8.46967 l 1.33306,3.81777 -0.37072,0.3096 c -2.94072,-2.43526 -5.02452,-3.94111 -6.23936,-4.40739 -2.42478,-1.01006 -3.424,0.46497 -3.07039,4.43894 -1.0032,-0.49169 -1.9967,-1.36295 -2.94811,-2.6681 -0.79214,-0.87496 -2.09134,-1.60524 -3.91045,-2.11002 l -6.88813,0.49497 c 2.70452,-3.3825 4.11187,-7.13507 4.15891,-11.29355 -3.49804,-0.40167 -5.77284,-0.65071 -6.79545,-0.71583 -1.06133,-0.0676 -3.13381,0.22102 -6.26894,0.83809 1.10255,-4.48794 -0.21371,-6.83616 -3.94003,-7.0735 -1.08266,0.75557 -2.53063,1.07975 -4.40541,0.96035 0.69611,-4.33492 -0.11097,-7.71759 -2.45315,-10.14585 -2.55747,-2.22415 -5.84203,-2.71705 -9.86779,-1.54998 -3.81134,1.21961 -5.63505,3.49815 -5.4269,6.82503 l -4.59276,-0.58765 c -0.5435,1.81665 -0.5897,4.08862 -0.1262,6.82504 -0.18978,-0.43991 -0.77198,-0.87341 -1.79845,-1.36659 -2.93318,-2.6759 -6.16123,-2.88807 -9.61934,-0.6192 -1.31847,1.16058 -1.83149,2.88538 -1.54998,5.18237 0.25054,2.29504 -0.0267,3.83218 -0.93275,4.62233 -4.81545,-2.18906 -8.05763,-2.17762 -9.65088,0 -0.47839,0.79405 -0.63737,2.01411 -0.52653,3.69353 0.32608,1.47533 0.1295,2.60559 -0.52849,3.41153 -6.66893,-3.13162 -10.18318,-4.68787 -10.60927,-4.71501 -5.07841,-1.35795 -6.96805,0.49035 -5.61621,5.52352 -3.77762,-2.72967 -7.77786,-1.60411 -12.04093,3.28927 -1.98735,-1.16109 -3.50072,-1.99673 -4.52965,-2.45117 -1.60748,-0.53018 -2.58221,0.15384 -2.91656,1.98381 0.4907,2.31033 0.0224,4.37211 -1.33504,6.1447 l -5.43083,2.14158 -6.11316,-6.63967 c -3.09006,-3.51039 -5.34577,-3.62751 -6.79545,-0.40623 -2.80194,-4.73659 -5.29608,-6.66964 -7.41466,-5.77002 -1.09549,0.95697 -1.72883,2.47923 -1.86155,4.56317 -1.68976,-3.02452 -3.54601,-3.96224 -5.7089,-2.85544 l -2.11002,3.59887 c -0.038,-2.70153 -0.85946,-4.21778 -2.48272,-4.50006 -1.01456,-0.31352 -3.03151,-0.10963 -5.98892,0.52652 -0.37988,-0.63093 -0.3784,-1.78882 -0.0631,-3.44112 0.5435,-1.81664 0.48924,-3.15176 -0.0612,-4.03467 -1.90191,0.3067 -2.71114,-1.09799 -2.51231,-4.22005 0.20243,-3.17851 -3.82795,-4.94668 -5.3993,-5.33816 v -0.15381 c 3.30232,-10.48229 1.98153,-25.61993 -4.34427,-20.7571 -1.90937,0.91294 -2.92339,2.31176 -3.04277,4.18652 l -7.66116,-1.73929 c -0.87351,0.76889 -1.22312,2.71691 -0.99388,5.8351 0.21009,2.9303 0.80215,4.92251 1.7669,6.01849 -3.06948,-0.41328 -5.31235,0.2846 -6.67122,2.08045 -1.71009,-5.51494 -4.62326,-8.29065 -8.78125,-8.34544 -2.28316,0.0646 -4.07353,0.86501 -5.4269,2.45118 l -1.18121,-1.02544 c -4.7213,-4.03433 -10.19856,-5.91738 -16.44438,-5.67734 -0.89337,4.50127 0.49719,8.32455 4.24963,11.44934 -3.96262,0.17544 -7.35564,-0.27347 -10.20896,-1.27193 -2.90514,-0.18502 -4.70717,0.61488 -5.43084,2.45118 -0.74226,-1.29183 -1.82841,-2.1808 -3.25772,-2.69965 -1.80529,-0.72169 -3.89936,-0.67085 -6.20386,0.21692 -2.36073,0.9153 -4.07749,2.15467 -5.21392,3.75466 l -0.34116,-0.0316 c 0.55929,-2.06456 -0.0662,-4.08833 -1.80042,-6.05004 7.22174,-21.92634 -16.2623,-10.88304 -13.99517,-14.30477 6.4916,-9.79767 9.81577,-17.98732 5.12124,-21.50251 -5.58973,-0.5349 -12.04859,-5.84506 -12.25587,0.34115 l 1.33306,3.81579 -0.34116,0.28002 c -2.94072,-2.43526 -5.05212,-3.93913 -6.26696,-4.40541 -2.42478,-1.01006 -3.42401,0.49454 -3.07038,4.46852 -1.00321,-0.49171 -1.96712,-1.39647 -2.91853,-2.70162 -0.79214,-0.87497 -2.09134,-1.5737 -3.91045,-2.07847 l -6.88814,0.49694 c 2.70452,-3.38251 4.08033,-7.13508 4.12737,-11.29355 -3.49804,-0.40167 -5.7413,-0.68029 -6.76391,-0.74541 -1.06135,-0.0675 -3.16537,0.25059 -6.30049,0.86767 1.10256,-4.48795 -0.18414,-6.86774 -3.91044,-7.10506 -1.08267,0.75557 -2.52866,1.1113 -4.40344,0.99191 0.69611,-4.33494 -0.14246,-7.71761 -2.4847,-10.14586 -1.59843,-1.3901 -3.47693,-2.11248 -5.64579,-2.17312 z"
       id="rect849"
       inkscape:connector-curvature="0" />
    <path
       inkscape:connector-curvature="0"
       style="color:#000000;display:inline;overflow:visible;visibility:visible;fill:#93cb80;fill-opacity:1;fill-rule:evenodd;stroke-width:1.35704184;stroke-linecap:butt;stroke-linejoin:miter;stroke-miterlimit:4;stroke-dasharray:none;stroke-dashoffset:0;stroke-opacity:1;marker:none;enable-background:accumulate"
       d="m 458.41938,600.91308 c -0.89302,1.53381 -1.4727,4.60516 -1.76712,9.22828 l -0.65448,1.63622 -3.20699,13.67879 c -2.75251,-5.59806 -4.99452,-9.79417 -6.74123,-12.56616 -0.41551,6.5242 -1.65859,11.42807 -3.79602,14.79141 -1.13055,-0.86731 -1.84444,-2.45231 -2.02892,-4.77775 -0.61969,-2.75806 -1.29014,-4.52097 -1.96346,-5.30134 -1.44975,4.14463 -2.30943,8.16054 -2.5525,11.97711 -21.31659,-4.0617 -33.68957,-6.19202 -37.1749,-6.41398 l -5.17045,-0.32723 c -37.31934,-1.19097 -63.97212,5.93331 -80.04384,21.46718 -1.14626,-5.84278 -2.03805,-9.94956 -2.6834,-12.30436 -1.2454,1.84395 -2.52586,6.03022 -3.66514,12.56616 -0.4748,1.0977 -1.01037,2.96015 -1.57076,5.6286 -3.48703,-5.64484 -5.60594,-8.79282 -6.34852,-9.62098 -0.25881,-1.15887 -0.971,-1.89192 -2.09437,-1.96347 -1.15991,-0.40646 -2.39217,1.09145 -3.79603,4.51598 -0.87758,2.19996 -1.36833,3.91615 -1.43988,5.03955 -0.96455,2.65715 -1.66386,6.89956 -2.02891,12.6316 l -0.58903,1.50533 -6.02129,-6.54487 c -4.07121,-8.73321 -7.56183,-14.2639 -10.53726,-16.3622 -0.38076,0.75664 -0.73774,3.04115 -0.98171,6.87213 l -0.65449,9.81732 c -2.1576,-2.4511 -3.9298,-4.28587 -5.36681,-5.56315 -1.48794,-1.61312 -3.14975,-2.68172 -5.03955,-3.20699 -1.5451,-0.48883 -2.30053,0.25871 -2.42161,2.15981 -0.34029,5.34321 -0.75005,8.27606 -1.17808,8.63924 -1.19491,1.05183 -3.9561,-1.05747 -8.24654,-6.34854 -1.5514,0.29163 -1.93465,2.77723 -1.04719,7.46116 -5.99944,-3.43326 -9.86524,-5.17935 -11.78078,-5.30135 -0.47478,1.0977 -0.4579,3.77991 0.0654,8.05021 l -1.04718,7.46114 58.83844,1.96347 v -0.52359 l 3.46877,0.19635 -6.54487,-7.13391 2.29071,2.22525 3.73058,4.25417 28.73201,-5.69405 c 4.62979,-0.0378 9.27533,-0.93052 14.00604,-2.5525 l 95.55519,-19.17647 32.92074,0.19632 c 3.79181,0.63194 8.06416,0.55934 12.7625,-0.32723 -0.74536,-0.78496 -0.83656,-2.56838 -0.2618,-5.2359 0.17243,-2.70761 0.0804,-4.47664 -0.26179,-5.2359 l -10.60271,-24.41239 -2.6834,6.21764 -0.78537,3.40334 -5.03956,-3.20699 0.13095,-1.70168 z m 97.38776,13.8097 -5.17045,8.24653 -4.9741,6.02129 c -0.0404,-4.58658 -0.81719,-7.74697 -2.29072,-9.35916 -4.56013,5.07447 -7.46908,8.04169 -8.63924,8.70467 l -1.43986,-4.71231 -3.33789,6.74123 -3.0761,-5.43225 c -1.58424,-0.10087 -2.8061,1.01759 -3.73057,3.27243 -6.18675,6.54707 -10.06244,10.3034 -11.64988,11.38809 -1.25618,1.10576 -3.06673,1.96567 -5.43225,2.5525 l 24.01969,-4.25416 6.08674,4.45052 -13.35154,9.55551 -1.24354,1.04718 110.34662,11.64989 6.15219,-5.95584 -0.85084,-4.64687 c -0.86905,-4.29231 -5.01574,-9.04118 -12.36982,-14.13693 -8.89153,-5.93117 -18.52972,-9.46668 -28.86291,-10.4718 -11.49698,-1.12264 -22.34858,-0.83321 -32.46258,0.85083 -1.00853,-2.78282 -3.57561,-7.97352 -7.72295,-15.51135 z m 96.60238,28.07751 c -0.81414,0.2952 -3.6608,3.19408 -8.63925,8.70469 l -1.96346,3.33789 -22.38347,23.43066 77.68767,6.67576 c 1.844,1.24536 4.21357,1.27527 7.00304,-0.0654 -0.31355,-1.20574 -0.0736,-2.98108 0.85081,-5.2359 0.55095,-2.29308 0.84111,-3.92402 0.9163,-5.10502 l -8.31199,3.53424 c 0.60715,-3.40295 0.36464,-6.00461 -0.71994,-7.59205 l -4.25418,3.79603 c 0.99971,-3.4358 1.20933,-6.85711 0.65449,-10.40636 -2.43351,2.56361 -4.33171,4.19176 -5.56314,4.90865 -1.55904,0.63823 -2.45629,0.16258 -2.74885,-1.37442 l -1.37443,-4.71231 c -0.76737,-0.43931 -1.75442,-0.12402 -3.01063,0.98173 -1.98799,1.01579 -3.13109,1.531 -3.53424,1.50533 -1.61941,0.67773 -3.91637,0.39646 -6.93756,-0.98174 0.36597,-5.74649 0.20368,-9.0411 -0.52359,-9.88276 -2.45116,2.15761 -4.06547,3.19108 -4.84322,3.14155 l 0.32725,-5.17045 c 1.0217,-3.78147 1.41868,-6.49789 1.11263,-8.0502 -2.81514,1.74397 -6.85675,4.92726 -12.17347,9.62096 -0.44817,-5.45127 -0.91503,-9.09583 -1.57077,-11.06084 z"
       id="path698-6" />
    <path
       id="path718-0"
       style="fill:#87c076;fill-opacity:1;fill-rule:evenodd;stroke-width:1.35704184"
       d="m 156.78268,713.29581 46.76457,-32.25041 c 28.15925,-12.10331 66.60571,-23.16103 115.46811,-33.1505 53.93204,-11.25727 102.29495,-16.81019 145.11235,-16.80194 66.29253,0.37539 123.84124,7.71346 172.68929,22.01694 31.78435,9.31237 56.70674,20.55927 74.79974,33.68494 l 29.68849,28.26101 z"
       inkscape:connector-curvature="0"
       sodipodi:nodetypes="cccccccc" />
  </g>
</svg>
